<svg width="26" height="14" viewBox="0 0 26 14" fill="none" xmlns="http://www.w3.org/2000/svg">
<path fill-rule="evenodd" clip-rule="evenodd" d="M0.653847 4.5C0.653847 2.29086 2.44471 0.5 4.65385 0.5H18.6538C20.863 0.5 22.6538 2.29086 22.6538 4.5V9.5C22.6538 11.7091 20.863 13.5 18.6538 13.5H4.65385C2.44471 13.5 0.653847 11.7091 0.653847 9.5V4.5Z" fill="white"/>
<path d="M23.6538 5.30768V9.3657C24.4702 9.02201 25.0011 8.22249 25.0011 7.33669C25.0011 6.45089 24.4702 5.65137 23.6538 5.30768Z" fill="white"/>
<path d="M7.58265 9.5L10.1224 4.47727V4.43466H7.18493V3.68182H11.0315V4.46023L8.50027 9.5H7.58265ZM13.9857 9.57955C13.7262 9.57576 13.4705 9.52841 13.2186 9.4375C12.9686 9.34659 12.7414 9.19508 12.5368 8.98295C12.3323 8.77083 12.1685 8.4858 12.0454 8.12784C11.9241 7.76989 11.8635 7.32292 11.8635 6.78693C11.8635 6.27936 11.9137 5.8286 12.0141 5.43466C12.1164 5.04072 12.2632 4.70833 12.4544 4.4375C12.6457 4.16477 12.8768 3.95739 13.1476 3.81534C13.4185 3.6733 13.7224 3.60227 14.0596 3.60227C14.4061 3.60227 14.7139 3.67045 14.9829 3.80682C15.2518 3.94318 15.4696 4.13163 15.6363 4.37216C15.8048 4.61269 15.9118 4.88636 15.9573 5.19318H15.0908C15.0321 4.95076 14.9156 4.75284 14.7414 4.59943C14.5671 4.44602 14.3399 4.36932 14.0596 4.36932C13.6334 4.36932 13.301 4.55492 13.0624 4.92614C12.8257 5.29735 12.7063 5.81345 12.7044 6.47443H12.7471C12.8474 6.30966 12.9705 6.16951 13.1164 6.05398C13.2641 5.93655 13.4289 5.84659 13.6107 5.78409C13.7944 5.7197 13.9876 5.6875 14.1902 5.6875C14.5274 5.6875 14.8323 5.76989 15.105 5.93466C15.3796 6.09754 15.5984 6.32292 15.7613 6.6108C15.9241 6.89867 16.0056 7.22822 16.0056 7.59943C16.0056 7.97064 15.9213 8.30682 15.7527 8.60795C15.5861 8.90909 15.3512 9.14773 15.0482 9.32386C14.7452 9.49811 14.391 9.58333 13.9857 9.57955ZM13.9829 8.84091C14.2063 8.84091 14.4061 8.78598 14.5823 8.67614C14.7584 8.56629 14.8976 8.41856 14.9999 8.23295C15.1022 8.04735 15.1533 7.83996 15.1533 7.6108C15.1533 7.38731 15.1031 7.18371 15.0027 7C14.9043 6.81629 14.7679 6.67045 14.5936 6.5625C14.4213 6.45455 14.2243 6.40057 14.0027 6.40057C13.8342 6.40057 13.6779 6.43277 13.534 6.49716C13.3919 6.56155 13.2669 6.65057 13.159 6.7642C13.051 6.87784 12.9658 7.00852 12.9033 7.15625C12.8427 7.30208 12.8124 7.45644 12.8124 7.61932C12.8124 7.83712 12.8626 8.03883 12.963 8.22443C13.0652 8.41004 13.2044 8.55966 13.3806 8.6733C13.5586 8.78504 13.7594 8.84091 13.9829 8.84091Z" fill="#06436B"/>
</svg>
