<svg width="24" height="25" viewBox="0 0 24 25" fill="none" xmlns="http://www.w3.org/2000/svg">
<path d="M23.625 15.3212C23.5938 15.7899 23.3594 16.5087 22.9219 17.4774C22.4844 18.4149 21.9688 19.2899 21.375 20.1024C20.75 20.9149 20.1719 21.3368 19.6406 21.368C19.4219 21.368 19.2188 21.3212 19.0312 21.2274L17.5312 20.3368C17.0312 20.6805 16.5 20.993 15.9375 21.2743V23.0555C15.875 23.618 15.5781 23.9774 15.0469 24.1337C14.0469 24.4149 13.0156 24.5555 11.9531 24.5555C10.9531 24.5555 9.9375 24.4149 8.90625 24.1337C8.375 23.9462 8.09375 23.5712 8.0625 23.0087V21.2274C7.5 20.9774 6.96875 20.6649 6.46875 20.2899L4.92188 21.1805C4.73438 21.2743 4.53125 21.3212 4.3125 21.3212C3.75 21.2899 3.17188 20.8524 2.57812 20.0087C1.95312 19.1649 1.4375 18.2743 1.03125 17.3368C0.59375 16.3993 0.375 15.7274 0.375 15.3212C0.375 14.9149 0.5625 14.6024 0.9375 14.3837L2.48438 13.493C2.45312 13.1805 2.4375 12.868 2.4375 12.5555C2.4375 12.243 2.45312 11.9305 2.48438 11.618L0.9375 10.7274C0.5625 10.5087 0.375 10.1805 0.375 9.74304C0.40625 9.27429 0.640625 8.57117 1.07812 7.63367C1.51562 6.69617 2.03125 5.82117 2.625 5.00867C3.21875 4.19617 3.78125 3.77429 4.3125 3.74304C4.53125 3.74304 4.73438 3.78992 4.92188 3.88367L6.46875 4.77429C6.96875 4.43054 7.5 4.11804 8.0625 3.83679V2.05554C8.09375 1.49304 8.375 1.13367 8.90625 0.977417C9.9375 0.696167 10.9688 0.555542 12 0.555542C13.0625 0.555542 14.0938 0.696167 15.0938 0.977417C15.625 1.13367 15.9062 1.49304 15.9375 2.05554V3.83679C16.5 4.11804 17.0312 4.43054 17.5312 4.77429L19.0781 3.88367C19.2656 3.78992 19.4688 3.74304 19.6875 3.74304C20.25 3.80554 20.8281 4.24304 21.4219 5.05554C22.0469 5.89929 22.5625 6.78992 22.9688 7.72742C23.4062 8.69617 23.625 9.36804 23.625 9.74304C23.625 10.1805 23.4375 10.5087 23.0625 10.7274L21.5156 11.618C21.5469 11.9305 21.5625 12.243 21.5625 12.5555C21.5625 12.868 21.5469 13.1649 21.5156 13.4462L23.0625 14.3368C23.4375 14.5555 23.625 14.8837 23.625 15.3212ZM19.4531 18.7899C20.2031 17.9462 20.7812 16.9774 21.1875 15.8837L19.125 14.7118C19.1562 14.4618 19.1719 14.243 19.1719 14.0555C19.2656 13.368 19.3125 12.868 19.3125 12.5555C19.3125 12.243 19.2656 11.743 19.1719 11.0555C19.1719 10.868 19.1562 10.6493 19.125 10.3993L21.1875 9.22742C20.7812 8.13367 20.2031 7.14929 19.4531 6.27429L17.4375 7.44617C16.625 6.85242 16.0625 6.46179 15.75 6.27429C15.4688 6.11804 14.9844 5.88367 14.2969 5.57117C14.1094 5.50867 13.9062 5.41492 13.6875 5.28992V2.94617C13.2812 2.85242 12.7188 2.80554 12 2.80554C11.5 2.80554 10.9375 2.85242 10.3125 2.94617V5.28992C9.375 5.69617 8.76562 5.97742 8.48438 6.13367C8.17188 6.32117 7.70312 6.63367 7.07812 7.07117C6.95312 7.19617 6.78125 7.32117 6.5625 7.44617L4.54688 6.27429C3.79688 7.14929 3.21875 8.13367 2.8125 9.22742L4.875 10.3993C4.84375 10.6493 4.82812 10.868 4.82812 11.0555C4.73438 11.743 4.6875 12.243 4.6875 12.5555C4.6875 12.8055 4.70312 13.1493 4.73438 13.5868C4.76562 13.868 4.79688 14.243 4.82812 14.7118L2.8125 15.8368C3.21875 16.9305 3.79688 17.9149 4.54688 18.7899L6.5625 17.618C7.375 18.2118 7.9375 18.6024 8.25 18.7899C8.53125 18.9462 9.01562 19.1805 9.70312 19.493C9.89062 19.5868 10.0938 19.6805 10.3125 19.7743V22.118C10.6875 22.2118 11.25 22.2587 12 22.2587C12.5 22.2587 13.0625 22.2118 13.6875 22.118V19.7743C14.625 19.368 15.2344 19.0868 15.5156 18.9305C15.8281 18.7743 16.2969 18.4618 16.9219 17.993C17.0469 17.868 17.2188 17.743 17.4375 17.618L19.4531 18.7899ZM12 8.00867C13.2812 8.03992 14.3438 8.47742 15.1875 9.32117C16.0312 10.1649 16.4688 11.2274 16.5 12.5087C16.4688 13.7899 16.0312 14.8524 15.1875 15.6962C14.3438 16.5399 13.2812 16.9774 12 17.0087C10.7188 16.9774 9.65625 16.5399 8.8125 15.6962C7.96875 14.8524 7.53125 13.7899 7.5 12.5087C7.53125 11.2274 7.96875 10.1649 8.8125 9.32117C9.65625 8.47742 10.7188 8.03992 12 8.00867ZM12 14.8055C12.625 14.7743 13.1562 14.5555 13.5938 14.1493C14 13.7118 14.2188 13.1805 14.25 12.5555C14.2188 11.9305 14 11.3993 13.5938 10.9618C13.1562 10.5555 12.625 10.3368 12 10.3055C11.375 10.3368 10.8438 10.5555 10.4062 10.9618C10 11.3993 9.78125 11.9305 9.75 12.5555C9.78125 13.1805 10 13.7118 10.4062 14.1493C10.8438 14.5555 11.375 14.7743 12 14.8055Z" fill="white"/>
</svg>
