<svg width="24" height="25" viewBox="0 0 24 25" fill="none" xmlns="http://www.w3.org/2000/svg">
<path d="M16.1719 6.01562C17.2344 6.92187 18.0469 7.96875 18.6094 9.15625C19.2031 10.375 19.5 11.6406 19.5 12.9531C19.5 14.3281 19.2031 15.6094 18.6094 16.7969C18.0469 18.0156 17.2344 19.0469 16.1719 19.8906C15.9531 20.0781 15.7188 20.1719 15.4688 20.1719C15.125 20.1719 14.8281 20.0312 14.5781 19.75C14.2031 19.1875 14.2656 18.6562 14.7656 18.1562C16.3906 16.7812 17.2188 15.0469 17.25 12.9531C17.2188 10.8594 16.3906 9.125 14.7656 7.75C14.2656 7.28125 14.2031 6.75 14.5781 6.15625C15.0781 5.6875 15.6094 5.64062 16.1719 6.01562ZM19.0312 2.54688C20.625 3.85938 21.8438 5.42187 22.6875 7.23438C23.5625 9.01562 24 10.9219 24 12.9531C24 15.0156 23.5625 16.9531 22.6875 18.7656C21.8438 20.5781 20.625 22.125 19.0312 23.4062C18.8125 23.5625 18.5781 23.6406 18.3281 23.6406C17.9844 23.6406 17.7031 23.5156 17.4844 23.2656C17.0781 22.6719 17.125 22.1406 17.625 21.6719C18.9375 20.5781 19.9531 19.2812 20.6719 17.7812C21.3906 16.2812 21.75 14.6719 21.75 12.9531C21.75 11.2656 21.3906 9.67188 20.6719 8.17188C19.9531 6.67188 18.9375 5.375 17.625 4.28125C17.125 3.8125 17.0781 3.28125 17.4844 2.6875C17.9531 2.21875 18.4688 2.17188 19.0312 2.54688ZM7.45312 10.6094L6.09375 10.5156C5.71875 12.1719 5.71875 13.8281 6.09375 15.4844L7.45312 15.3438C8.48438 15.3125 9.21875 15.75 9.65625 16.6562L11.1094 20.2656C11.2969 20.7656 11.3125 21.25 11.1562 21.7188C11 22.2188 10.6875 22.6094 10.2188 22.8906L7.35938 24.6719C7.01562 24.8906 6.64062 25 6.23438 25C5.67188 25 5.17188 24.7812 4.73438 24.3438C3.20312 22.8125 2.03125 21.0781 1.21875 19.1406C0.40625 17.1719 0 15.1094 0 12.9531C0 10.7969 0.40625 8.75 1.21875 6.8125C2.03125 4.875 3.20312 3.14063 4.73438 1.60938C5.07812 1.26563 5.5 1.0625 6 1C6.46875 0.96875 6.92188 1.07813 7.35938 1.32812L10.2188 3.0625C10.6875 3.375 11 3.76562 11.1562 4.23438C11.3125 4.70312 11.2969 5.1875 11.1094 5.6875L9.65625 9.29688C9.21875 10.2344 8.48438 10.6719 7.45312 10.6094ZM4.21875 17.0312C3.34375 14.3438 3.34375 11.6562 4.21875 8.96875C4.4375 8.4375 4.82812 8.17188 5.39062 8.17188L7.6875 8.40625L9 4.84375L6.23438 3.25C4.95312 4.5625 3.96875 6.04688 3.28125 7.70312C2.59375 9.35938 2.25 11.1094 2.25 12.9531C2.25 14.8281 2.59375 16.6094 3.28125 18.2969C3.96875 19.9531 4.96875 21.4531 6.28125 22.7969L9.04688 20.9688L7.59375 17.5L5.39062 17.7812C4.82812 17.8125 4.4375 17.5625 4.21875 17.0312ZM13.3594 9.53125C14.4219 10.4375 14.9688 11.5938 15 13C14.9688 14.4062 14.4219 15.5625 13.3594 16.4688C13.1406 16.625 12.8906 16.7031 12.6094 16.7031C12.2656 16.7031 11.9844 16.5781 11.7656 16.3281C11.3594 15.7344 11.4062 15.2031 11.9062 14.7344C12.4688 14.2656 12.75 13.6875 12.75 13C12.75 12.3125 12.4688 11.7344 11.9062 11.2656C11.4062 10.7969 11.3594 10.2656 11.7656 9.67188C12.2344 9.20312 12.7656 9.15625 13.3594 9.53125Z" fill="white"/>
</svg>
