<svg width="24" height="24" viewBox="0 0 24 24" fill="none" xmlns="http://www.w3.org/2000/svg">
<path d="M22.4531 12C22.3906 12.6875 22.0156 13.0625 21.3281 13.125H5.4375L11.6719 19.0781C12.1094 19.5781 12.1094 20.1094 11.6719 20.6719C11.1719 21.1094 10.6406 21.1094 10.0781 20.6719L1.82812 12.7969C1.60938 12.5781 1.5 12.3125 1.5 12C1.5 11.6875 1.60938 11.4219 1.82812 11.2031L10.0781 3.32812C10.6406 2.89063 11.1719 2.89063 11.6719 3.32812C12.1094 3.89062 12.1094 4.42187 11.6719 4.92188L5.4375 10.875H21.375C22.0312 10.9375 22.3906 11.3125 22.4531 12Z" fill="white"/>
</svg>
