<svg width="18" height="13" viewBox="0 0 18 13" fill="none" xmlns="http://www.w3.org/2000/svg">
<path d="M9.61538 3.38462C9.61538 2.85357 10.0459 2.42308 10.5769 2.42308H11.5385C12.0695 2.42308 12.5 2.85357 12.5 3.38462V11.0769C12.5 11.608 12.0695 12.0385 11.5385 12.0385H10.5769C10.0459 12.0385 9.61538 11.608 9.61538 11.0769V3.38462Z" fill="white"/>
<path d="M14.4231 1.46154C14.4231 0.930495 14.8536 0.5 15.3846 0.5H16.3462C16.8772 0.5 17.3077 0.930495 17.3077 1.46154V11.0769C17.3077 11.608 16.8772 12.0385 16.3462 12.0385H15.3846C14.8536 12.0385 14.4231 11.608 14.4231 11.0769V1.46154Z" fill="white"/>
<path d="M4.80769 6.75C4.80769 6.21896 5.23819 5.78846 5.76923 5.78846H6.73077C7.26181 5.78846 7.69231 6.21896 7.69231 6.75V11.0769C7.69231 11.608 7.26181 12.0385 6.73077 12.0385H5.76923C5.23819 12.0385 4.80769 11.608 4.80769 11.0769V6.75Z" fill="white"/>
<path d="M0 9.15385C0 8.6228 0.430495 8.19231 0.961538 8.19231H1.92308C2.45412 8.19231 2.88462 8.6228 2.88462 9.15385V11.0769C2.88462 11.608 2.45412 12.0385 1.92308 12.0385H0.961538C0.430495 12.0385 0 11.608 0 11.0769V9.15385Z" fill="white"/>
</svg>
