<svg width="25" height="24" viewBox="0 0 25 24" fill="none" xmlns="http://www.w3.org/2000/svg">
<path d="M21.875 1.5C22.625 1.53125 23.25 1.78125 23.75 2.25C24.2188 2.75 24.4688 3.375 24.5 4.125V18.375C24.4688 19.5312 24.0625 20.5 23.2812 21.2812C22.5 22.0625 21.5312 22.4688 20.375 22.5H3.875C2.90625 22.4688 2.10938 22.1406 1.48438 21.5156C0.859375 20.8906 0.53125 20.0938 0.5 19.125V5.25C0.5625 4.5625 0.9375 4.1875 1.625 4.125C2.3125 4.1875 2.6875 4.5625 2.75 5.25V19.125C2.8125 19.8125 3.1875 20.1875 3.875 20.25C4.5625 20.1875 4.9375 19.8125 5 19.125V4.125C5.03125 3.375 5.28125 2.75 5.75 2.25C6.25 1.78125 6.875 1.53125 7.625 1.5H21.875ZM22.25 18.375V4.125C22.2188 3.90625 22.0938 3.78125 21.875 3.75H7.625C7.40625 3.78125 7.28125 3.90625 7.25 4.125V19.125C7.25 19.5312 7.1875 19.9062 7.0625 20.25H20.375C20.9062 20.25 21.3438 20.0625 21.6875 19.6875C22.0625 19.3438 22.25 18.9062 22.25 18.375ZM12.875 12.75C13.5625 12.8125 13.9375 13.1875 14 13.875C13.9375 14.5625 13.5625 14.9375 12.875 15H9.875C9.1875 14.9375 8.8125 14.5625 8.75 13.875C8.8125 13.1875 9.1875 12.8125 9.875 12.75H12.875ZM19.625 12.75C20.3125 12.8125 20.6875 13.1875 20.75 13.875C20.6875 14.5625 20.3125 14.9375 19.625 15H16.625C15.9375 14.9375 15.5625 14.5625 15.5 13.875C15.5625 13.1875 15.9375 12.8125 16.625 12.75H19.625ZM12.875 16.5C13.5625 16.5625 13.9375 16.9375 14 17.625C13.9375 18.3125 13.5625 18.6875 12.875 18.75H9.875C9.1875 18.6875 8.8125 18.3125 8.75 17.625C8.8125 16.9375 9.1875 16.5625 9.875 16.5H12.875ZM19.625 16.5C20.3125 16.5625 20.6875 16.9375 20.75 17.625C20.6875 18.3125 20.3125 18.6875 19.625 18.75H16.625C15.9375 18.6875 15.5625 18.3125 15.5 17.625C15.5625 16.9375 15.9375 16.5625 16.625 16.5H19.625ZM19.25 5.25C19.6875 5.25 20.0469 5.39062 20.3281 5.67188C20.6094 5.95312 20.75 6.3125 20.75 6.75V9.75C20.75 10.1875 20.6094 10.5469 20.3281 10.8281C20.0469 11.1094 19.6875 11.25 19.25 11.25H10.25C9.8125 11.25 9.45312 11.1094 9.17188 10.8281C8.89062 10.5469 8.75 10.1875 8.75 9.75V6.75C8.75 6.3125 8.89062 5.95312 9.17188 5.67188C9.45312 5.39062 9.8125 5.25 10.25 5.25H19.25Z" fill="white"/>
</svg>
