<svg width="25" height="24" viewBox="0 0 25 24" fill="none" xmlns="http://www.w3.org/2000/svg">
<path d="M16.9531 10.875C17.6094 10.9375 17.9375 11.3125 17.9375 12C17.9062 12.6875 17.5469 13.0625 16.8594 13.125H13.4844V16.5C13.4531 17.1875 13.0938 17.5625 12.4062 17.625C11.7188 17.5625 11.3438 17.1875 11.2812 16.5V13.125H7.95312C7.64062 13.125 7.375 13.0156 7.15625 12.7969C6.9375 12.5781 6.82812 12.3125 6.82812 12C6.82812 11.6875 6.9375 11.4219 7.15625 11.2031C7.375 10.9844 7.64062 10.875 7.95312 10.875H11.3281V7.5C11.3281 7.1875 11.4531 6.92188 11.7031 6.70312C11.9219 6.48437 12.1875 6.375 12.5 6.375C13.1562 6.4375 13.5156 6.8125 13.5781 7.5V10.875H16.9531ZM20 1.5C20.8438 1.53125 21.5469 1.82812 22.1094 2.39062C22.6719 2.95312 22.9688 3.65625 23 4.5V19.5C22.9688 20.3438 22.6719 21.0469 22.1094 21.6094C21.5469 22.1719 20.8438 22.4688 20 22.5H5C4.15625 22.4688 3.45312 22.1719 2.89062 21.6094C2.32812 21.0469 2.03125 20.3438 2 19.5V4.5C2.03125 3.65625 2.32812 2.95312 2.89062 2.39062C3.45312 1.82812 4.15625 1.53125 5 1.5H20ZM20.75 19.5V4.5C20.7188 4.03125 20.4688 3.78125 20 3.75H5C4.53125 3.78125 4.28125 4.03125 4.25 4.5V19.5C4.28125 19.9688 4.53125 20.2188 5 20.25H20C20.4688 20.2188 20.7188 19.9688 20.75 19.5Z" fill="white"/>
</svg>
