<svg width="17" height="12" viewBox="0 0 17 12" fill="none" xmlns="http://www.w3.org/2000/svg">
<path fill-rule="evenodd" clip-rule="evenodd" d="M8.48122 2.98801C10.8529 2.98811 13.1339 3.91832 14.8528 5.58636C14.9822 5.71514 15.1891 5.71352 15.3166 5.58272L16.5538 4.30813C16.6184 4.24179 16.6544 4.15192 16.6538 4.05843C16.6533 3.96493 16.6163 3.8755 16.551 3.80994C12.0395 -0.603313 4.92219 -0.603313 0.410735 3.80994C0.345383 3.87546 0.308304 3.96485 0.307701 4.05835C0.307098 4.15185 0.343022 4.24174 0.407524 4.30813L1.64516 5.58272C1.77255 5.71372 1.9796 5.71534 2.10896 5.58636C3.82804 3.91821 6.1093 2.988 8.48122 2.98801ZM8.5153 6.83594C9.81839 6.83586 11.075 7.33026 12.0409 8.22307C12.1715 8.34978 12.3773 8.34703 12.5047 8.21688L13.7405 6.94228C13.8056 6.87542 13.8417 6.78473 13.8408 6.69048C13.8399 6.59623 13.802 6.50631 13.7356 6.44081C10.7941 3.64794 6.23897 3.64794 3.29755 6.44081C3.2311 6.50631 3.1932 6.59628 3.19232 6.69055C3.19145 6.78483 3.22769 6.87552 3.29291 6.94228L4.5284 8.21688C4.65576 8.34703 4.86156 8.34978 4.9922 8.22307C5.95748 7.33085 7.21307 6.83649 8.5153 6.83594ZM11.0284 9.32377C11.0303 9.41828 10.9939 9.5094 10.9278 9.57561L8.79005 11.7777C8.72738 11.8425 8.64194 11.8789 8.5528 11.8789C8.46365 11.8789 8.37821 11.8425 8.31555 11.7777L6.17743 9.57561C6.11138 9.50935 6.07504 9.4182 6.077 9.32369C6.07896 9.22918 6.11904 9.13968 6.18777 9.07633C7.55303 7.89764 9.55257 7.89764 10.9178 9.07633C10.9865 9.13973 11.0265 9.22926 11.0284 9.32377Z" fill="white"/>
</svg>
